<svg xmlns="http://www.w3.org/2000/svg" xmlns:xlink="http://www.w3.org/1999/xlink" version="1.1" id="Capa_1" x="0px" y="0px" viewBox="0 0 192.6 180" style="enable-background:new 0 0 192.6 180;" xml:space="preserve">
<style type="text/css">
	.st0{fill:#C8C922;}
	.st1{fill:#E2A235;}
	.st2{fill:#FDE723;}
	.st3{fill:#008E39;}
	.st4{fill:#BA0048;}
	.st5{fill:#FFFFFF;}
	.st6{fill:none;stroke:#3B2B5B;stroke-width:2;stroke-miterlimit:10;}
	.st7{enable-background:new    ;}
	.st8{fill:#3B2B5B;}
    #number{fill:#FFFFFF;}
</style>
<g id="Icono_Score_desconocido" transform="translate(0 -3)">
	<g id="Capa_1_1_" transform="translate(0 3)">
		<path id="number" d="M23.7,172.6h-1.5v-4.9l-1.5,0.4V167l2.9-1h0.1L23.7,172.6L23.7,172.6z"/>
		<path id="number" d="M25.9,169.4l0.4-3.4h3.9v1.2h-2.6l-0.1,1.3c0.1-0.1,0.3-0.1,0.4-0.1c0.2-0.1,0.3-0.1,0.5-0.1    c0.6,0,1.1,0.2,1.5,0.6c0.4,0.5,0.6,1.1,0.5,1.6c0,0.8-0.4,1.5-1.1,1.9c-0.4,0.2-0.8,0.3-1.2,0.3c-0.4,0-0.8-0.1-1.1-0.3    c-0.3-0.2-0.6-0.4-0.9-0.7c-0.2-0.3-0.3-0.6-0.3-1h1.5c0,0.4,0.2,0.7,0.6,0.8c0.1,0,0.1,0,0.2,0c0.5,0,0.8-0.4,0.8-1.1    c0-0.8-0.3-1.1-0.9-1.1c-0.3,0-0.6,0.1-0.8,0.4L25.9,169.4z"/>
		<path id="number" d="M35.9,170c0,0.7-0.2,1.5-0.6,2.1c-0.4,0.5-1.1,0.8-1.7,0.7c-0.7,0-1.3-0.2-1.7-0.7    c-0.4-0.6-0.6-1.3-0.6-2.1v-1.2c0-0.7,0.2-1.5,0.6-2.1c0.4-0.5,1.1-0.8,1.7-0.7c0.7,0,1.3,0.2,1.7,0.7c0.4,0.6,0.6,1.3,0.6,2.1    L35.9,170z M34.4,168.5c0-0.4,0-0.7-0.2-1.1c-0.2-0.3-0.5-0.4-0.9-0.3c-0.1,0.1-0.2,0.2-0.3,0.3c-0.2,0.3-0.2,0.7-0.2,1v1.7    c0,0.4,0,0.7,0.2,1.1c0.2,0.3,0.5,0.4,0.9,0.3c0.1-0.1,0.2-0.2,0.3-0.3c0.2-0.3,0.2-0.7,0.2-1.1V168.5z"/>
		<path id="number" d="M159,170.1c-0.3,0.3-0.7,0.4-1.1,0.4c-0.6,0-1.1-0.2-1.4-0.6c-0.4-0.5-0.5-1.1-0.5-1.6    c0-0.4,0.1-0.8,0.3-1.2c0.2-0.4,0.5-0.7,0.9-0.9c0.3-0.2,0.7-0.3,1.1-0.3c0.4,0,0.8,0.1,1.2,0.4c0.4,0.2,0.7,0.5,0.9,0.9    c0.2,0.4,0.3,0.9,0.3,1.4v0.6c0,0.7-0.1,1.3-0.4,1.9c-0.3,0.5-0.7,0.9-1.2,1.2c-0.6,0.3-1.2,0.4-1.9,0.4h-0.1v-1.1h0.3    C158.2,171.6,158.9,170.9,159,170.1L159,170.1z M158.4,169.5c0.3,0,0.6-0.1,0.7-0.4v-0.6c0-0.3-0.1-0.6-0.2-0.9    c-0.1-0.2-0.3-0.3-0.6-0.3c-0.2,0-0.5,0.2-0.6,0.4c-0.3,0.5-0.3,1.2,0,1.7C157.9,169.4,158.1,169.4,158.4,169.5L158.4,169.5z"/>
		<path id="number" d="M161.6,169.4l0.4-3.4h3.9v1.2h-2.6l-0.1,1.3c0.1-0.1,0.3-0.1,0.4-0.1c0.2-0.1,0.3-0.1,0.5-0.1    c0.6,0,1.1,0.2,1.5,0.6c0.4,0.5,0.6,1.1,0.5,1.6c0,0.8-0.4,1.5-1.1,1.9c-0.4,0.2-0.8,0.3-1.2,0.3c-0.4,0-0.8-0.1-1.1-0.3    c-0.3-0.2-0.6-0.4-0.9-0.7c-0.2-0.3-0.3-0.6-0.3-1h1.5c0,0.4,0.2,0.7,0.6,0.8c0.1,0,0.1,0,0.2,0c0.5,0,0.8-0.4,0.8-1.1    c0-0.8-0.3-1.1-0.9-1.1c-0.3,0-0.6,0.1-0.8,0.4L161.6,169.4z"/>
		<path id="number" d="M171.5,170c0,0.7-0.2,1.5-0.6,2.1c-0.4,0.5-1.1,0.8-1.7,0.7c-0.7,0-1.3-0.2-1.7-0.7    c-0.4-0.6-0.6-1.3-0.6-2.1v-1.2c0-0.7,0.2-1.5,0.6-2.1c0.4-0.5,1.1-0.8,1.7-0.7c0.7,0,1.3,0.2,1.7,0.7c0.4,0.6,0.6,1.3,0.6,2.1    V170z M170,168.5c0-0.4,0-0.7-0.2-1.1c-0.2-0.3-0.5-0.4-0.9-0.3c-0.1,0.1-0.2,0.2-0.3,0.3c-0.2,0.3-0.2,0.7-0.2,1v1.7    c0,0.4,0,0.7,0.2,1.1c0.2,0.3,0.5,0.4,0.9,0.3c0.1-0.1,0.2-0.2,0.3-0.3c0.2-0.3,0.2-0.7,0.2-1.1V168.5z"/>
		<path id="Trazado_15702" class="st0" d="M184.3,71.4l4.7-1.3c-7.8-27.3-27.1-49.7-52.9-61.5l-2,4.4    C158.6,24.2,176.9,45.6,184.3,71.4z"/>
		<path id="Trazado_15703" class="st1" d="M58.4,13.1l-2-4.4C30.7,20.4,11.4,42.9,3.6,70.2l4.7,1.3C15.7,45.6,34,24.3,58.4,13.1z"/>
		<path id="Trazado_15704" class="st2" d="M96.3,4.9c13.1,0,26,2.8,37.8,8.2l2-4.4c-25.3-11.5-54.4-11.5-79.7,0l2,4.4    C70.3,7.7,83.2,4.9,96.3,4.9L96.3,4.9z"/>
		<path id="Trazado_15705" class="st3" d="M189.1,70.1l-4.7,1.3c7.6,26.9,2.5,55.9-13.9,78.5c-1.9,2.7-4,5.3-6.3,7.7    c-0.9,1-0.9,2.5,0.1,3.4c0,0,0,0,0,0c0.5,0.4,1,0.6,1.6,0.6c0.7,0,1.3-0.3,1.8-0.8c2.4-2.6,4.6-5.3,6.6-8.2    C191.6,128.9,197,98.5,189.1,70.1z"/>
		<path id="Trazado_15706" class="st4" d="M28.5,157.7c-2.2-2.5-4.3-5-6.3-7.7C10.9,134.4,4.8,115.6,4.8,96.3    c0-8.4,1.2-16.8,3.4-24.9l-4.7-1.3C1.2,78.6,0,87.4,0,96.3c0,20.3,6.4,40.1,18.4,56.6c2.1,2.8,4.3,5.5,6.6,8.1    c0.9,1,2.4,1.1,3.4,0.2c0,0,0,0,0,0c1-0.8,1.1-2.3,0.2-3.3C28.6,157.8,28.6,157.8,28.5,157.7z"/>
		<circle id="Elipse_295" class="st5" cx="96.3" cy="95.3" r="84.7"/>
		<circle id="Elipse_296" class="st6" cx="168.1" cy="35.4" r="17.6"/>
		<circle id="Elipse_297" class="st5" cx="168.1" cy="35.4" r="3.6"/>
		<g class="st7">
			<path class="st8" d="M85.2,106.8c0-5.4,0.7-9.8,2-13c1.3-3.2,3.7-6.4,7.2-9.5c3.5-3.1,5.8-5.7,7-7.6s1.7-4,1.7-6.2     c0-6.6-3-9.8-9.1-9.8c-2.9,0-5.2,0.9-6.9,2.7s-2.6,4.2-2.7,7.3H67.6c0.1-7.4,2.5-13.2,7.2-17.4c4.7-4.2,11.1-6.3,19.3-6.3     c8.2,0,14.6,2,19.1,6s6.8,9.6,6.8,16.8c0,3.3-0.7,6.4-2.2,9.3c-1.5,2.9-4,6.2-7.7,9.7l-4.7,4.5c-2.9,2.8-4.6,6.1-5.1,9.9     l-0.2,3.5H85.2z M83.5,124.6c0-2.6,0.9-4.7,2.6-6.4s4-2.5,6.8-2.5c2.8,0,5,0.8,6.8,2.5c1.8,1.7,2.6,3.8,2.6,6.4     c0,2.5-0.9,4.7-2.6,6.3s-4,2.5-6.8,2.5c-2.8,0-5.1-0.8-6.8-2.5C84.4,129.2,83.5,127.1,83.5,124.6z"/>
		</g>
	</g>
</g>
</svg>